# Blender v2.79 (sub 0) OBJ File: 'Cone.blend'
# www.blender.org
v 0.000000 -1.000000 -1.000000
v 0.382683 -1.000000 -0.923880
v 0.707107 -1.000000 -0.707107
v 0.923880 -1.000000 -0.382683
v 1.000000 -1.000000 0.000000
v 0.923880 -1.000000 0.382684
v 0.707107 -1.000000 0.707107
v 0.382683 -1.000000 0.923880
v 0.000000 -1.000000 1.000000
v -0.382683 -1.000000 0.923880
v -0.707107 -1.000000 0.707107
v 0.000000 1.000000 0.000000
v -0.923880 -1.000000 0.382684
v -1.000000 -1.000000 -0.000000
v -0.923879 -1.000000 -0.382684
v -0.707107 -1.000000 -0.707107
v -0.382683 -1.000000 -0.923880
vt 0.000000 0.000000
vt 1.000000 0.000000
vt 1.000000 1.000000
vt 0.000000 0.000000
vt 1.000000 1.000000
vt 0.000000 0.000000
vt 1.000000 1.000000
vt 0.000000 0.000000
vt 1.000000 1.000000
vt 0.000000 0.000000
vt 1.000000 1.000000
vt 0.000000 0.000000
vt 1.000000 1.000000
vt 0.000000 0.000000
vt 1.000000 1.000000
vt 0.000000 0.000000
vt 1.000000 1.000000
vt 0.000000 0.000000
vt 1.000000 1.000000
vt 0.000000 0.000000
vt 1.000000 1.000000
vt 0.000000 0.000000
vt 1.000000 1.000000
vt 0.000000 0.000000
vt 1.000000 1.000000
vt 0.000000 0.000000
vt 1.000000 1.000000
vt 0.000000 0.000000
vt 1.000000 1.000000
vt 0.000000 0.000000
vt 1.000000 1.000000
vt 0.000000 0.000000
vt 1.000000 1.000000
vt 0.691342 0.038060
vt 0.038060 0.308658
vt 0.961940 0.691342
vt 0.308659 0.961940
vt 0.500000 1.000000
vt 0.691342 0.961940
vt 0.853553 0.853553
vt 1.000000 0.500000
vt 0.961940 0.308658
vt 0.853553 0.146447
vt 0.500000 0.000000
vt 0.308658 0.038060
vt 0.146447 0.146446
vt 0.000000 0.500000
vt 0.038060 0.691342
vt 0.146447 0.853554
vn 0.1752 0.4403 -0.8806
vn 0.4988 0.4403 -0.7465
vn 0.7465 0.4403 -0.4988
vn 0.8806 0.4403 -0.1752
vn 0.8806 0.4403 0.1752
vn 0.7465 0.4403 0.4988
vn 0.4988 0.4403 0.7465
vn 0.1752 0.4403 0.8806
vn -0.1752 0.4403 0.8806
vn -0.4988 0.4403 0.7465
vn -0.7465 0.4403 0.4988
vn -0.8806 0.4403 0.1752
vn -0.8806 0.4403 -0.1752
vn -0.7465 0.4403 -0.4988
vn -0.4988 0.4403 -0.7465
vn -0.1752 0.4403 -0.8806
vn 0.0000 -1.0000 0.0000
s off
f 1/1/1 12/2/1 2/3/1
f 2/4/2 12/2/2 3/5/2
f 3/6/3 12/2/3 4/7/3
f 4/8/4 12/2/4 5/9/4
f 5/10/5 12/2/5 6/11/5
f 6/12/6 12/2/6 7/13/6
f 7/14/7 12/2/7 8/15/7
f 8/16/8 12/2/8 9/17/8
f 9/18/9 12/2/9 10/19/9
f 10/20/10 12/2/10 11/21/10
f 11/22/11 12/2/11 13/23/11
f 13/24/12 12/2/12 14/25/12
f 14/26/13 12/2/13 15/27/13
f 15/28/14 12/2/14 16/29/14
f 16/30/15 12/2/15 17/31/15
f 17/32/16 12/2/16 1/33/16
f 8/34/17 13/35/17 4/36/17
f 17/37/17 1/38/17 2/39/17
f 2/39/17 3/40/17 17/37/17
f 4/36/17 5/41/17 6/42/17
f 6/42/17 7/43/17 4/36/17
f 8/34/17 9/44/17 13/35/17
f 10/45/17 11/46/17 13/35/17
f 13/35/17 14/47/17 15/48/17
f 15/48/17 16/49/17 17/37/17
f 17/37/17 3/40/17 4/36/17
f 4/36/17 7/43/17 8/34/17
f 9/44/17 10/45/17 13/35/17
f 13/35/17 15/48/17 17/37/17
f 17/37/17 4/36/17 13/35/17
