# Blender v2.79 (sub 0) OBJ File: 'CutCone.blend'
# www.blender.org
mtllib CutCone.mtl
v 0.000000 -0.584914 -1.000000
v 0.382683 -0.584914 -0.923880
v 0.707107 -0.584914 -0.707107
v 0.923880 -0.584914 -0.382683
v 1.000000 -0.584914 0.000000
v 0.923880 -0.584914 0.382684
v 0.707107 -0.584914 0.707107
v 0.382683 -0.584914 0.923880
v 0.000000 -0.584914 1.000000
v -0.382683 -0.584914 0.923880
v -0.707107 -0.584914 0.707107
v -0.923880 -0.584914 0.382684
v -1.000000 -0.584914 -0.000000
v -0.923879 -0.584914 -0.382684
v -0.707107 -0.584914 -0.707107
v -0.382683 -0.584914 -0.923880
v 0.289784 0.595451 -0.289784
v 0.156830 0.595451 -0.378622
v 0.000000 0.595451 -0.409817
v -0.156830 0.595451 -0.378622
v -0.289784 0.595451 -0.289785
v -0.378622 0.595451 -0.156830
v -0.409817 0.595451 -0.000000
v -0.378622 0.595451 0.156830
v -0.156830 0.595451 0.378622
v 0.000000 0.595451 0.409817
v -0.289784 0.595451 0.289785
v 0.156830 0.595451 0.378622
v 0.289784 0.595451 0.289784
v 0.378622 0.595451 0.156830
v 0.409817 0.595451 0.000000
v 0.378622 0.595451 -0.156830
vt 0.691342 0.038060
vt 0.038060 0.691342
vt 0.308659 0.961940
vt 0.691342 0.038060
vt 0.038060 0.308658
vt 0.961940 0.691342
vt 1.000000 0.000000
vt 0.000000 1.000000
vt 0.000000 0.000000
vt 0.000000 0.000000
vt 1.000000 1.000000
vt 0.000000 1.000000
vt 1.000000 0.000000
vt 0.000000 1.000000
vt 0.000000 0.000000
vt 0.000000 0.000000
vt 1.000000 1.000000
vt 0.000000 1.000000
vt 1.000000 0.000000
vt 0.000000 1.000000
vt 0.000000 0.000000
vt 1.000000 0.000000
vt 0.000000 1.000000
vt 0.000000 0.000000
vt 1.000000 0.000000
vt 0.000000 1.000000
vt 0.000000 0.000000
vt 1.000000 0.000000
vt 0.000000 1.000000
vt 0.000000 0.000000
vt 1.000000 0.000000
vt 0.000000 1.000000
vt 0.000000 0.000000
vt 1.000000 0.000000
vt 0.000000 1.000000
vt 0.000000 0.000000
vt 0.000000 0.000000
vt 1.000000 1.000000
vt 0.000000 1.000000
vt 1.000000 0.000000
vt 0.000000 1.000000
vt 0.000000 0.000000
vt 1.000000 0.000000
vt 0.000000 1.000000
vt 0.000000 0.000000
vt 0.000000 0.000000
vt 1.000000 1.000000
vt 0.000000 1.000000
vt 0.000000 0.000000
vt 1.000000 1.000000
vt 0.000000 1.000000
vt 1.000000 0.000000
vt 0.000000 1.000000
vt 0.000000 0.000000
vt 0.500000 1.000000
vt 0.691342 0.961940
vt 0.853553 0.853553
vt 0.961940 0.691342
vt 1.000000 0.500000
vt 0.961940 0.308658
vt 0.853553 0.146447
vt 0.500000 0.000000
vt 0.038060 0.308658
vt 0.308658 0.038060
vt 0.146447 0.146446
vt 0.000000 0.500000
vt 0.146447 0.853554
vt 0.308659 0.961940
vt 0.500000 1.000000
vt 0.691342 0.961940
vt 0.853553 0.853553
vt 1.000000 0.500000
vt 0.961940 0.308658
vt 0.853553 0.146447
vt 0.500000 0.000000
vt 0.308658 0.038060
vt 0.146447 0.146446
vt 0.000000 0.500000
vt 0.038060 0.691342
vt 0.146447 0.853554
vt 1.000000 1.000000
vt 1.000000 0.000000
vt 1.000000 1.000000
vt 1.000000 0.000000
vt 1.000000 1.000000
vt 1.000000 1.000000
vt 1.000000 1.000000
vt 1.000000 1.000000
vt 1.000000 1.000000
vt 1.000000 1.000000
vt 1.000000 0.000000
vt 1.000000 1.000000
vt 1.000000 1.000000
vt 1.000000 0.000000
vt 1.000000 0.000000
vt 1.000000 1.000000
vn 0.0000 1.0000 0.0000
vn 0.0000 -1.0000 0.0000
vn -0.1752 0.4403 -0.8806
vn -0.4988 0.4403 -0.7465
vn -0.7465 0.4403 -0.4988
vn -0.8806 0.4403 -0.1752
vn -0.8806 0.4403 0.1752
vn -0.7465 0.4403 0.4988
vn -0.4988 0.4403 0.7465
vn -0.1752 0.4403 0.8806
vn 0.1752 0.4403 0.8806
vn 0.4988 0.4403 0.7465
vn 0.7465 0.4403 0.4988
vn 0.8806 0.4403 0.1752
vn 0.8806 0.4403 -0.1752
vn 0.7465 0.4403 -0.4988
vn 0.4988 0.4403 -0.7465
vn 0.1752 0.4403 -0.8806
usemtl None
s off
f 26/1/1 17/2/1 19/3/1
f 8/4/2 12/5/2 4/6/2
f 20/7/3 1/8/3 16/9/3
f 15/10/4 20/11/4 16/12/4
f 22/13/5 15/14/5 14/15/5
f 13/16/6 22/17/6 14/18/6
f 24/19/7 13/20/7 12/21/7
f 27/22/8 12/23/8 11/24/8
f 25/25/9 11/26/9 10/27/9
f 26/28/10 10/29/10 9/30/10
f 28/31/11 9/32/11 8/33/11
f 29/34/12 8/35/12 7/36/12
f 6/37/13 29/38/13 7/39/13
f 31/40/14 6/41/14 5/42/14
f 32/43/15 5/44/15 4/45/15
f 3/46/16 32/47/16 4/48/16
f 2/49/17 17/50/17 3/51/17
f 19/52/18 2/53/18 1/54/18
f 19/3/1 20/55/1 21/56/1
f 21/56/1 22/57/1 23/58/1
f 23/58/1 24/59/1 27/60/1
f 27/60/1 25/61/1 26/1/1
f 26/1/1 28/62/1 31/63/1
f 29/64/1 30/65/1 31/63/1
f 31/63/1 32/66/1 17/2/1
f 17/2/1 18/67/1 19/3/1
f 19/3/1 21/56/1 26/1/1
f 23/58/1 27/60/1 26/1/1
f 28/62/1 29/64/1 31/63/1
f 31/63/1 17/2/1 26/1/1
f 21/56/1 23/58/1 26/1/1
f 16/68/2 1/69/2 2/70/2
f 2/70/2 3/71/2 16/68/2
f 4/6/2 5/72/2 6/73/2
f 6/73/2 7/74/2 4/6/2
f 8/4/2 9/75/2 12/5/2
f 10/76/2 11/77/2 12/5/2
f 12/5/2 13/78/2 14/79/2
f 14/79/2 15/80/2 16/68/2
f 16/68/2 3/71/2 4/6/2
f 4/6/2 7/74/2 8/4/2
f 9/75/2 10/76/2 12/5/2
f 12/5/2 14/79/2 16/68/2
f 16/68/2 4/6/2 12/5/2
f 20/7/3 19/81/3 1/8/3
f 15/10/4 21/82/4 20/11/4
f 22/13/5 21/83/5 15/14/5
f 13/16/6 23/84/6 22/17/6
f 24/19/7 23/85/7 13/20/7
f 27/22/8 24/86/8 12/23/8
f 25/25/9 27/87/9 11/26/9
f 26/28/10 25/88/10 10/29/10
f 28/31/11 26/89/11 9/32/11
f 29/34/12 28/90/12 8/35/12
f 6/37/13 30/91/13 29/38/13
f 31/40/14 30/92/14 6/41/14
f 32/43/15 31/93/15 5/44/15
f 3/46/16 17/94/16 32/47/16
f 2/49/17 18/95/17 17/50/17
f 19/52/18 18/96/18 2/53/18
