# Blender v2.79 (sub 0) OBJ File: 'Diamond.blend'
# www.blender.org
mtllib Diamond.mtl
v -0.000000 -1.500000 0.000000
v -0.000000 1.500000 0.000000
v 0.000000 -1.500000 0.000000
v 0.000000 1.500000 0.000000
v 0.000000 -1.500000 -0.000000
v 0.000000 1.500000 -0.000000
v 0.000000 -1.500000 0.000000
v 0.000000 1.500000 0.000000
v -0.000000 -1.500000 0.000000
v -0.000000 1.500000 0.000000
v 0.000000 -1.500000 0.000000
v 0.000000 1.500000 0.000000
v 0.000000 -1.500000 -0.000000
v 0.000000 1.500000 -0.000000
v 0.000000 -1.500000 0.000000
v 0.000000 1.500000 0.000000
v 0.000000 0.000000 -1.000000
v 0.707107 0.000000 -0.707107
v 1.000000 0.000000 0.000000
v 0.707107 0.000000 0.707107
v -0.000000 0.000000 1.000000
v -0.707107 0.000000 0.707107
v -1.000000 0.000000 -0.000000
v -0.707107 0.000000 -0.707107
vt 1.000000 0.500000
vt 0.853553 0.146447
vt 0.146447 0.853553
vt 0.146447 0.146447
vt 0.000000 0.500000
vt 0.500000 1.000000
vt 0.853553 0.853553
vt 0.500000 0.000000
vt 0.000000 0.000000
vt 0.000000 0.000000
vt 0.000000 0.000000
vt 0.000000 0.000000
vt 0.000000 0.000000
vt 0.000000 0.000000
vt 0.000000 0.000000
vt 0.000000 0.000000
vt 0.000000 0.000000
vt 0.000000 0.000000
vt 0.000000 0.000000
vt 0.000000 0.000000
vt 0.000000 0.000000
vt 0.000000 0.000000
vt 0.000000 0.000000
vt 0.000000 0.000000
vt 0.000000 0.000000
vt 0.000000 0.000000
vt 0.000000 0.000000
vt 0.000000 0.000000
vt 0.000000 0.000000
vt 0.000000 0.000000
vt 0.000000 0.000000
vt 0.000000 0.000000
vn 0.0000 0.0000 1.0000
vn 0.3258 0.5244 -0.7866
vn 0.7866 0.5244 -0.3258
vn 0.7866 0.5244 0.3258
vn 0.3258 0.5244 0.7866
vn -0.3258 0.5244 0.7866
vn -0.7866 0.5244 0.3258
vn -0.7866 0.5244 -0.3258
vn -0.3258 0.5244 -0.7866
vn 0.0000 0.5547 0.8321
vn -0.8321 -0.5547 0.0000
vn 0.0000 -0.5547 0.8321
vn -0.8321 0.5547 0.0000
vn 0.0000 0.5547 -0.8321
vn 0.8321 0.5547 0.0000
vn 0.0000 -0.5547 -0.8321
vn 0.0000 -1.0000 0.0000
vn 0.0000 1.0000 0.0000
vn 0.8321 -0.5547 0.0000
vn -0.3258 -0.5244 -0.7866
vn -0.7866 -0.5244 -0.3258
vn -0.7866 -0.5244 0.3258
vn -0.3258 -0.5244 0.7866
vn 0.3258 -0.5244 0.7866
vn 0.7866 -0.5244 0.3258
vn 0.7866 -0.5244 -0.3258
vn 0.3258 -0.5244 -0.7866
usemtl None
s off
f 5/1/1 7/2/1 15/3/1
f 11/4/1 13/5/1 15/3/1
f 15/3/1 1/6/1 3/7/1
f 9/8/1 11/4/1 15/3/1
f 15/3/1 3/7/1 5/1/1
f 7/2/1 9/8/1 15/3/1
usemtl None_NONE
f 17/9/2 4/10/2 18/11/2
f 18/11/3 6/12/3 19/13/3
f 19/13/4 8/14/4 20/15/4
f 20/15/5 10/16/5 21/17/5
f 21/17/6 12/18/6 22/19/6
f 22/19/7 14/20/7 23/21/7
f 14/20/1 12/18/1 6/12/1
f 23/21/8 16/22/8 24/23/8
f 24/23/9 2/24/9 17/9/9
f 15/25/10 17/9/10 1/26/10
f 13/27/1 24/23/1 15/25/1
f 11/28/11 23/21/11 13/27/11
f 9/29/1 22/19/1 11/28/1
f 7/30/12 21/17/12 9/29/12
f 5/31/1 20/15/1 7/30/1
f 3/32/13 19/13/13 5/31/13
f 1/26/1 18/11/1 3/32/1
f 17/9/14 2/24/14 4/10/14
f 18/11/1 4/10/1 6/12/1
f 19/13/15 6/12/15 8/14/15
f 20/15/1 8/14/1 10/16/1
f 21/17/16 10/16/16 12/18/16
f 22/19/1 12/18/1 14/20/1
f 6/12/17 4/10/17 2/24/17
f 6/12/18 2/24/18 16/22/18
f 10/16/18 8/14/18 6/12/18
f 6/12/1 16/22/1 14/20/1
f 12/18/17 10/16/17 6/12/17
f 23/21/19 14/20/19 16/22/19
f 24/23/1 16/22/1 2/24/1
f 15/25/20 24/23/20 17/9/20
f 13/27/21 23/21/21 24/23/21
f 11/28/22 22/19/22 23/21/22
f 9/29/23 21/17/23 22/19/23
f 7/30/24 20/15/24 21/17/24
f 5/31/25 19/13/25 20/15/25
f 3/32/26 18/11/26 19/13/26
f 1/26/27 17/9/27 18/11/27
