# Blender v2.79 (sub 0) OBJ File: 'HalfHexagon.blend'
# www.blender.org
mtllib HalfHexagon.mtl
v -1.000000 -0.398138 -1.000000
v -1.000000 -0.398138 1.000000
v -0.500000 0.467888 -1.000000
v -0.500000 0.467888 1.000000
v 0.500000 0.467888 -1.000000
v 0.500000 0.467888 1.000000
v 1.000000 -0.398138 -1.000000
v 1.000000 -0.398138 1.000000
vt 1.000000 0.000000
vt 0.000000 1.000000
vt 0.000000 0.000000
vt 1.000000 0.000000
vt 0.000000 1.000000
vt 0.000000 0.000000
vt 1.000000 0.000000
vt 0.000000 1.000000
vt 0.000000 0.000000
vt 1.000000 0.000000
vt 1.000000 0.000000
vt 0.000000 1.000000
vt 0.000000 1.000000
vt 0.000000 0.000000
vt 1.000000 1.000000
vt 1.000000 1.000000
vt 1.000000 1.000000
vt 1.000000 1.000000
vn -0.8660 0.5000 0.0000
vn 0.0000 1.0000 0.0000
vn 0.8660 0.5000 -0.0000
vn -0.0000 -0.0000 -1.0000
vn -0.0000 -1.0000 0.0000
vn 0.0000 0.0000 1.0000
usemtl None
s off
f 2/1/1 3/2/1 1/3/1
f 4/4/2 5/5/2 3/6/2
f 6/7/3 7/8/3 5/9/3
f 3/10/4 7/8/4 1/3/4
f 7/11/5 2/12/5 1/3/5
f 2/1/6 6/13/6 4/14/6
f 2/1/1 4/15/1 3/2/1
f 4/4/2 6/16/2 5/5/2
f 6/7/3 8/17/3 7/8/3
f 3/10/4 5/18/4 7/8/4
f 7/11/5 8/17/5 2/12/5
f 2/1/6 8/17/6 6/13/6
