# Blender v2.79 (sub 0) OBJ File: 'Hexagon.blend'
# www.blender.org
mtllib Hexagon.mtl
v 0.000000 -1.000000 -1.000000
v 0.000000 1.000000 -1.000000
v 0.866025 -1.000000 -0.500000
v 0.866025 1.000000 -0.500000
v 0.866025 -1.000000 0.500000
v 0.866025 1.000000 0.500000
v -0.000000 -1.000000 1.000000
v -0.000000 1.000000 1.000000
v -0.866025 -1.000000 0.500000
v -0.866025 1.000000 0.500000
v -0.866025 -1.000000 -0.500000
v -0.866025 1.000000 -0.500000
vt 1.000000 0.000000
vt 0.000000 1.000000
vt 0.000000 0.000000
vt 1.000000 0.000000
vt 0.000000 1.000000
vt 0.000000 0.000000
vt 1.000000 0.000000
vt 0.000000 1.000000
vt 0.000000 0.000000
vt 1.000000 0.000000
vt 0.000000 1.000000
vt 0.000000 0.000000
vt 0.933013 0.750000
vt 0.500000 0.000000
vt 0.500000 1.000000
vt 1.000000 0.000000
vt 0.000000 1.000000
vt 0.000000 0.000000
vt 1.000000 0.000000
vt 0.000000 1.000000
vt 0.000000 0.000000
vt 0.933013 0.250000
vt 0.500000 0.000000
vt 0.066987 0.750000
vt 1.000000 1.000000
vt 1.000000 1.000000
vt 1.000000 1.000000
vt 1.000000 1.000000
vt 0.066987 0.750000
vt 0.933013 0.250000
vt 0.066987 0.250000
vt 1.000000 1.000000
vt 1.000000 1.000000
vt 0.500000 1.000000
vt 0.933013 0.750000
vt 0.066987 0.250000
vn 0.5000 0.0000 -0.8660
vn 1.0000 0.0000 0.0000
vn 0.5000 0.0000 0.8660
vn -0.5000 0.0000 0.8660
vn 0.0000 1.0000 0.0000
vn -1.0000 0.0000 0.0000
vn -0.5000 0.0000 -0.8660
vn 0.0000 -1.0000 0.0000
usemtl None
s off
f 2/1/1 3/2/1 1/3/1
f 4/4/2 5/5/2 3/6/2
f 6/7/3 7/8/3 5/9/3
f 8/10/4 9/11/4 7/12/4
f 2/13/5 10/14/5 4/15/5
f 10/16/6 11/17/6 9/18/6
f 12/19/7 1/20/7 11/21/7
f 5/22/8 7/23/8 11/24/8
f 2/1/1 4/25/1 3/2/1
f 4/4/2 6/26/2 5/5/2
f 6/7/3 8/27/3 7/8/3
f 8/10/4 10/28/4 9/11/4
f 6/29/5 4/15/5 10/14/5
f 2/13/5 12/30/5 10/14/5
f 10/14/5 8/31/5 6/29/5
f 10/16/6 12/32/6 11/17/6
f 12/19/7 2/33/7 1/20/7
f 11/24/8 1/34/8 3/35/8
f 3/35/8 5/22/8 11/24/8
f 7/23/8 9/36/8 11/24/8
