# Blender v2.79 (sub 0) OBJ File: 'TriangleWedge.blend'
# www.blender.org
mtllib TriangleWedge.mtl
v -1.000000 -1.000000 1.000000
v -1.000000 -1.000000 -1.000000
v 1.000000 -1.000000 1.000000
v 1.000000 -1.000000 -1.000000
v 0.000000 1.000000 -1.000000
v 0.000000 1.000000 1.000000
vt 0.675542 0.679479
vt 0.414073 0.418010
vt 0.675542 0.418010
vt 0.355640 0.125892
vt 0.094171 0.387361
vt 0.094171 0.125892
vt 0.081867 0.420470
vt 0.343336 0.681939
vt 0.081867 0.681939
vt 0.339536 0.718225
vt 0.208802 0.979694
vt 0.078067 0.718225
vt 0.648786 0.728068
vt 0.518051 0.989537
vt 0.387317 0.728068
vt 0.414073 0.679479
vt 0.355640 0.387361
vt 0.343336 0.420470
vn -0.8944 0.4472 0.0000
vn 0.0000 -1.0000 0.0000
vn 0.8944 0.4472 0.0000
vn 0.0000 0.0000 1.0000
vn 0.0000 0.0000 -1.0000
usemtl None
s off
f 6/1/1 2/2/1 1/3/1
f 4/4/2 1/5/2 2/6/2
f 3/7/3 5/8/3 6/9/3
f 3/10/4 6/11/4 1/12/4
f 2/13/5 5/14/5 4/15/5
f 6/1/1 5/16/1 2/2/1
f 4/4/2 3/17/2 1/5/2
f 3/7/3 4/18/3 5/8/3
