# Blender v2.79 (sub 0) OBJ File: 'Prism.blend'
# www.blender.org
mtllib Prism.mtl
v -1.000000 -1.000000 1.000000
v -1.000000 -1.000000 -1.000000
v 1.000000 -1.000000 1.000000
v 1.000000 -1.000000 -1.000000
v 0.000000 1.000000 -1.000000
v 0.000000 1.000000 1.000000
vt 0.000000 0.000000
vt 1.000000 0.000000
vt 1.000000 1.000000
vt 0.000000 0.000000
vt 0.000000 0.000000
vt 0.000000 0.000000
vt 0.000000 0.000000
vt 0.000000 0.000000
vn 0.0000 0.0000 -1.0000
vn -0.8944 0.4472 0.0000
vn 0.0000 -1.0000 0.0000
vn 0.8944 0.4472 0.0000
vn 0.0000 0.0000 1.0000
usemtl None
s off
f 2/1/1 5/2/1 4/3/1
usemtl None_NONE
f 6/4/2 2/1/2 1/5/2
f 4/6/3 1/5/3 2/1/3
f 3/7/4 5/8/4 6/4/4
f 3/7/5 6/4/5 1/5/5
f 6/4/2 5/8/2 2/1/2
f 4/6/3 3/7/3 1/5/3
f 3/7/4 4/6/4 5/8/4
